<?xml version="1.0" encoding="UTF-8"?>
<svg width="20px" height="20px" viewBox="0 0 20 20" version="1.1" xmlns="http://www.w3.org/2000/svg" xmlns:xlink="http://www.w3.org/1999/xlink">
    <!-- Generator: Sketch 49.3 (51167) - http://www.bohemiancoding.com/sketch -->
    <title>icon_write case</title>
    <desc>Created with Sketch.</desc>
    <defs></defs>
    <g id="Page-1" stroke="none" stroke-width="1" fill="none" fill-rule="evenodd">
        <g id="icon_write-case">
            <path d="M10.7777523,4.03210456 L3.87680503,4.03438542" id="Path-184" stroke="#3A4451" stroke-dasharray="1"></path>
            <path d="M6.96760159,8.03210456 L3.87680503,8.03438542" id="Path-184" stroke="#3A4451" stroke-dasharray="1"></path>
            <path d="M8.90923044,11.0321046 L3.87680503,11.0343854" id="Path-184" stroke="#3A4451" stroke-dasharray="1"></path>
            <path d="M8.90923044,15.0321046 L3.87680503,15.0343854" id="Path-184" stroke="#3A4451" stroke-dasharray="1"></path>
            <polyline id="Path-186" stroke="#3A4451" points="8.83451697 1.42178213 1.13799685 1.42178213 1.13799685 18.3323769 18.702543 18.3323769 18.702543 13.5792591"></polyline>
            <polygon id="Shape" fill="#3A4451" fill-rule="nonzero" points="14.1821429 10.1767742 13.5714286 8.88774194 12.3316593 8.11812317 16.1107143 4.18451613 16.5607143 4.67225806 13.3923736 7.90909091 14.0535714 8.36516129 14.375 9.02709677 17.4607143 5.64774194 17.9107143 6.13548387"></polygon>
            <path d="M18.3607143,5.64774194 L16.5285714,3.66193548 L16.7535714,3.41806452 C17.0107143,3.13935484 17.3321429,3 17.6535714,3 C18.0071429,3 18.3285714,3.13935484 18.5535714,3.41806452 C18.8107143,3.69677419 18.9392857,4.04516129 18.9392857,4.39354839 C18.9392857,4.77677419 18.8107143,5.12516129 18.5535714,5.36903226 L18.3607143,5.64774194 Z M17.525,3.76645161 L18.3285714,4.63741935 C18.3285714,4.56774194 18.3607143,4.53290323 18.3607143,4.46322581 C18.3607143,4.28903226 18.2964286,4.11483871 18.1678571,3.97548387 C17.975,3.76645161 17.75,3.69677419 17.525,3.76645161 Z" id="Shape" fill="#3A4451" fill-rule="nonzero"></path>
            <polygon id="Shape" fill="#3A4451" fill-rule="nonzero" points="11.1990609 11.5064807 11.8678571 8.78322581 12.4785714 9.02709677 12.2459914 10.3381679 13.4428571 10.0722581 13.6678571 10.7341935"></polygon>
        </g>
    </g>
</svg>
