<?xml version="1.0" encoding="UTF-8"?>
<svg width="20px" height="20px" viewBox="0 0 20 20" version="1.1" xmlns="http://www.w3.org/2000/svg" xmlns:xlink="http://www.w3.org/1999/xlink">
    <!-- Generator: Sketch 51.3 (57544) - http://www.bohemiancoding.com/sketch -->
    <title>icon_surface </title>
    <desc>Created with Sketch.</desc>
    <defs></defs>
    <g id="icon_surface-" stroke="none" stroke-width="1" fill="none" fill-rule="evenodd">
        <path d="M14.8033321,6.81752947 C15.370257,9.44260644 16.287869,11.2721806 17.5342799,12.3186565 L18.0392374,12.7426145 L9.50889788,18.5687029 L9.29376562,18.5175104 C7.42562888,18.0729712 6.16393022,16.9442757 5.55894947,15.1712318 C5.19453856,14.1032366 5.06851726,13.599774 4.81433532,12.3748751 C4.79017749,12.2587901 4.79017749,12.2587901 4.7658484,12.1444608 C4.62846925,11.5041468 4.49349838,11.0294599 4.25128586,10.3948377 C3.82877173,9.28780653 3.07652087,8.47110005 1.97528358,7.92708476 L1.25106399,7.56931761 L9.28844001,1.4631928 L9.51146238,1.50964261 C12.3877725,2.1087039 14.173535,3.90133024 14.8033321,6.81752947 Z" id="Path-95" stroke="#121212" fill="#CD930C" transform="translate(9.704756, 10.015115) scale(-1, 1) translate(-9.704756, -10.015115) "></path>
    </g>
</svg>