<?xml version="1.0" encoding="UTF-8"?>
<svg width="20px" height="20px" viewBox="0 0 20 20" version="1.1" xmlns="http://www.w3.org/2000/svg" xmlns:xlink="http://www.w3.org/1999/xlink">
    <!-- Generator: Sketch 51.3 (57544) - http://www.bohemiancoding.com/sketch -->
    <title>icon_plot</title>
    <desc>Created with Sketch.</desc>
    <defs></defs>
    <g id="icon_plot" stroke="none" stroke-width="1" fill="none" fill-rule="evenodd">
        <polygon id="Path-9" fill="#768696" fill-rule="nonzero" points="18.003952 17.0047455 18.003952 17.9965156 2.0138634 17.9965156 1.98810637 1.99824524 2.99613249 1.99681091 2.99631949 17.0047455"></polygon>
        <polygon id="Path-70" fill="#768696" fill-rule="nonzero" points="0.460235344 2.99912035 2.50179474 0.283009751 4.61094743 3"></polygon>
        <polygon id="Path-70" fill="#768696" fill-rule="nonzero" transform="translate(18.369275, 17.513019) rotate(-270.000000) translate(-18.369275, -17.513019) " points="16.2939194 18.8706344 18.3354787 16.1545238 20.4446314 18.871514"></polygon>
        <path d="M6.02507814,14.0020957 L4.97400308,13.9994295 C5.76858681,11.8967376 7.45123038,11.0018663 10.0745072,11.0018663 C12.7138814,11.0018663 14.2123577,11.8252298 15.0314539,13.9892585 L14.0103675,13.9958202 C13.4216781,12.5306623 12.3815619,12.0018663 10.0745072,12.0018663 C7.78482221,12.0018663 6.709389,12.416869 6.02507814,14.0020957 Z" id="Path-71" fill="#007700" fill-rule="nonzero"></path>
        <path d="M6.02507814,9.0020957 L4.97400308,8.99942951 C5.76858681,6.89673763 7.45123038,6.00186632 10.0745072,6.00186632 C12.7138814,6.00186632 14.2123577,6.82522979 15.0314539,8.98925852 L14.0103675,8.99582019 C13.4216781,7.53066227 12.3815619,7.00186632 10.0745072,7.00186632 C7.78482221,7.00186632 6.709389,7.41686902 6.02507814,9.0020957 Z" id="Path-71" fill="#BB0000" fill-rule="nonzero"></path>
    </g>
</svg>