<?xml version="1.0" encoding="UTF-8"?>
<svg width="20px" height="20px" viewBox="0 0 21 21" version="1.1" xmlns="http://www.w3.org/2000/svg" xmlns:xlink="http://www.w3.org/1999/xlink">
    <!-- Generator: Sketch 50.2 (55047) - http://www.bohemiancoding.com/sketch -->
    <title>icon_controls</title>
    <desc>Created with Sketch.</desc>
    <defs></defs>
    <g id="Solver_Ribbon" stroke="none" stroke-width="1" fill="none" fill-rule="evenodd">
        <g id="icon_controls" transform="translate(0.164882, 0.743867)" fill-rule="nonzero">
            <g>
                <path d="M14.1367516,12.1718673 L11.6401398,9.66628303 L16.6939281,4.62371048 L17.5911829,4.39939676 L19.4776614,2.51291833 L17.4386497,0.469420287 L15.5521712,2.35589872 L15.3278575,3.25315362 L10.2673398,8.30245559 L7.7729712,5.80584382 C8.26622864,4.42021082 7.86875264,2.87386899 6.76844944,1.89784926 C5.66814624,0.921829513 4.08543173,0.711650951 2.76853199,1.36667519 L2.27952807,1.61790656 L4.86586533,4.20200068 C5.1011353,4.43830404 5.1011353,4.82033261 4.86586533,5.05663598 C4.62713157,5.28594471 4.24996378,5.28594471 4.01123003,5.05663598 L1.41816336,2.46581244 L1.17141826,2.93687126 C0.487891542,4.25040322 0.676008442,5.84817064 1.64591862,6.96703132 C2.6158288,8.08589199 4.17073519,8.49882642 5.56796728,8.0086046 L7.66754376,10.1149105 C7.69505276,10.3857851 7.57520754,10.6506119 7.35356008,10.8087328 C7.13191262,10.9668537 6.84249963,10.9939873 6.59532415,10.8798203 L6.34633591,10.7654203 L1.05701826,16.0502517 C0.273445325,16.8338246 0.273445325,18.1042474 1.05701826,18.8878203 C1.84059121,19.6713932 3.11101396,19.6713932 3.89458689,18.8878203 L9.18390454,13.5962595 L9.07174768,13.3472713 C8.9571644,13.1003507 8.98418679,12.8108925 9.14249434,12.5894475 C9.3008019,12.3680027 9.56594432,12.2487729 9.83665748,12.2772948 L11.9339908,14.3768713 C11.4456063,15.7610672 11.8447284,17.3031606 12.9433172,18.2766186 C14.041906,19.2500767 15.6208231,19.4607212 16.9361869,18.8093105 L17.4251908,18.5670517 L14.8410967,15.9784713 C14.6050957,15.7424703 14.6050957,15.359837 14.8410967,15.123836 C15.0770977,14.887835 15.459731,14.887835 15.695732,15.123836 L18.2865555,17.7169026 L18.5355437,17.2413576 C19.2208891,15.9275996 19.033041,14.3283494 18.0619213,13.2091602 C17.0908017,12.0899708 15.5340009,11.6785597 14.1367516,12.1718673 Z M15.9469633,3.72869872 L16.0209869,3.65243205 L16.2453006,2.75517715 L17.4386497,1.59098891 L18.3628222,2.51516147 L17.182932,3.69505166 L16.2856771,3.91936539 L10.2965006,9.91078499 L10.0318104,9.64609479 L15.9469633,3.72869872 Z M5.50515945,7.19883205 C4.50284834,7.63735035 3.33743544,7.45751414 2.51393694,6.73725306 C1.69043843,6.01699197 1.35702582,4.88590207 1.65817904,3.83412617 L3.45268885,5.62863598 C3.80370019,5.97964732 4.31531037,6.11673285 4.79480077,5.98825378 C5.27429118,5.85977471 5.64881583,5.48525007 5.77729489,5.00575967 C5.90577396,4.52626926 5.76868843,4.01465908 5.41767708,3.66364774 L3.65008493,1.87811048 C4.69767245,1.60213571 5.81077181,1.95024905 6.51445351,2.77391996 C7.2181352,3.59759086 7.38816003,4.75139528 6.95198297,5.74303598 L6.84431238,5.98978107 L9.71328493,8.85651048 L9.47775552,9.08082421 L8.74649277,8.36077715 L7.8873712,9.21765559 L5.75190454,7.08218891 L5.50515945,7.19883205 Z M8.66798297,11.9475537 C8.28574149,12.3330108 8.13263521,12.8901476 8.26421826,13.4168085 L3.3293163,18.3404948 C2.85235887,18.8174522 2.07905806,18.8174522 1.60210062,18.3404948 C1.12514318,17.8635374 1.12514318,17.0902366 1.60210062,16.6132791 L6.53700258,11.6783772 C7.06372822,11.8096845 7.62072679,11.6550249 8.00434693,11.2709454 C8.38796707,10.8868658 8.54195992,10.3296825 8.41002219,9.8031144 L8.74649277,9.46888695 L8.92145748,9.64385166 L10.2965006,11.0121654 L10.4737085,11.1893732 L10.1372379,11.5236007 C9.6085878,11.3939514 9.05069326,11.5515246 8.66798297,11.9385811 L8.66798297,11.9475537 Z M18.0465398,16.3642909 L16.2520301,14.5697811 C15.8548981,14.1721019 15.257201,14.053043 14.737996,14.2681912 C14.2187911,14.4833395 13.880487,14.9902589 13.881034,15.5522752 C13.8794308,15.9209112 14.0256742,16.2748039 14.2870418,16.5347693 L16.0568771,18.3046046 C15.0083885,18.5823203 13.8935175,18.2345028 13.1889409,17.409866 C12.4843643,16.5852291 12.3147956,15.4297375 12.7527359,14.437436 L12.8604066,14.1906909 L10.7249398,12.0552242 L11.5840614,11.1983458 L10.8505555,10.4648399 L11.0748692,10.2405262 L13.9528144,13.098283 L14.1995594,12.9906125 C15.2018705,12.5520942 16.3672834,12.7319303 17.1907819,13.4521914 C18.0142804,14.1724525 18.3476931,15.3035424 18.0465398,16.3553183 L18.0465398,16.3642909 Z" id="Shape" fill="#CD930C"></path>
                <polygon id="Rectangle-path" fill="#121212" transform="translate(3.879179, 16.106249) rotate(-45.000000) translate(-3.879179, -16.106249) " points="1.67229037 15.5558902 6.08678449 15.5558902 6.08678449 16.6558902 1.67229037 16.6558902"></polygon>
            </g>
        </g>
    </g>
</svg>
