<?xml version="1.0" encoding="UTF-8"?>
<svg width="40px" height="40px" viewBox="0 0 20 20" version="1.1" xmlns="http://www.w3.org/2000/svg" xmlns:xlink="http://www.w3.org/1999/xlink">
    <!-- Generator: Sketch 51.3 (57544) - http://www.bohemiancoding.com/sketch -->
    <title>icon_initialize</title>
    <desc>Created with Sketch.</desc>
    <defs></defs>
    <g id="icon_initialize" stroke="none" stroke-width="1" fill="none" fill-rule="evenodd">
        <polygon id="Rectangle-8" fill="#CD930C" fill-rule="nonzero" points="4 5.0131266 11.9993696 5.0131266 11.9993696 11.9999486 4 11.9999486"></polygon>
        <polygon id="Path-14" fill="#CD930C" fill-rule="nonzero" points="13.007782 4.98720412 16.9978027 2.00166321 16.9998106 7.99151611 12.9984283 12.0187409"></polygon>
        <polygon id="Rectangle-8-Copy" fill="#CD930C" fill-rule="nonzero" points="8.33806477 1 17.0012098 1 12.9873596 4.00946951 4 4.00946951"></polygon>
        <path d="M5.003054,15.0019531 L5.003054,15.9988262 L4.00984365,15.9988262 L4.00264415,17.3804432 C4.00264415,17.8036224 4.01159588,18.0502019 4.02949962,18.1201893 C4.04740336,18.1901766 4.1309923,18.4131062 4.50706895,18.3618885 C4.63380711,18.3446281 5.08672818,18.2885953 5.3276148,18.2007042 L5.43651895,19.0745858 C5.11750694,19.2113053 4.76446577,19.3046875 4.36081792,19.3046875 C4.11342085,19.3046875 3.92945074,19.2749717 3.73088204,19.1919635 C3.53231334,19.1089553 3.33989307,18.9501538 3.24711917,18.8183172 C3.15434527,18.6864806 3.09779727,18.5478527 3.0619898,18.3232422 C3.03269278,18.1637362 3.01804448,17.8414738 3.01804448,17.3564453 L3.01804448,15.9988262 L2.00575564,15.9988262 L2.00575564,15.0019531 L3.00349345,15.0019531 L3.00349345,12.999205 L3.99870399,12.9949461 L3.99870399,15.0019531 L5.003054,15.0019531 Z M7.02017043,16.0069074 L7.02017043,15.0093547 L12.0131471,15.0093547 L12.0131471,16.0069074 L7.02017043,16.0069074 Z M7.02017043,18.0069074 L7.02017043,17.0093547 L12.0131471,17.0093547 L12.0131471,18.0069074 L7.02017043,18.0069074 Z M16.0057556,13 C16.6023973,13 17.0687792,13.2030708 17.4049153,13.6092184 C17.8054775,14.0901828 18.0057556,14.88777 18.0057556,16.002004 C18.0057556,17.113566 17.804077,17.9124892 17.4007136,18.3987976 C17.0673786,18.7996012 16.6023973,19 16.0057556,19 C15.4063129,19 14.9231244,18.7802293 14.5561758,18.3406814 C14.1892272,17.9011334 14.0057556,17.1175741 14.0057556,15.98998 C14.0057556,14.883762 14.2074343,14.0875108 14.6107977,13.6012024 C14.9441327,13.2003988 15.409114,13 16.0057556,13 Z M16.0057556,14 C15.8189415,14 15.6522765,14.04203 15.5057556,14.1260912 C15.3592348,14.2101524 15.2456828,14.3608137 15.1650963,14.5780795 C15.0588687,14.8600079 15.0057556,15.3346232 15.0057556,16.0019399 C15.0057556,16.6692565 15.0533742,17.1277065 15.1486128,17.3773036 C15.2438514,17.6269007 15.3638135,17.7930807 15.5085029,17.8758487 C15.6531923,17.9586166 15.8189415,18 16.0057556,18 C16.1925698,18 16.3592348,17.95797 16.5057556,17.8739088 C16.6522765,17.7898476 16.7658285,17.6391863 16.846415,17.4219205 C16.9526426,17.1425786 17.0057556,16.6692565 17.0057556,16.0019399 C17.0057556,15.3346232 16.9581371,14.8761732 16.8628985,14.6265761 C16.7676599,14.376979 16.6476978,14.2101524 16.5030084,14.1260912 C16.358319,14.04203 16.1925698,14 16.0057556,14 Z" id="t=0" fill="#121212"></path>
    </g>
</svg>