<?xml version="1.0" encoding="UTF-8"?>
<svg width="20px" height="20px" viewBox="0 0 20 20" version="1.1" xmlns="http://www.w3.org/2000/svg" xmlns:xlink="http://www.w3.org/1999/xlink">
    <!-- Generator: Sketch 51.3 (57544) - http://www.bohemiancoding.com/sketch -->
    <title>icon_methods</title>
    <desc>Created with Sketch.</desc>
    <defs></defs>
    <g id="icon_methods" stroke="none" stroke-width="1" fill="none" fill-rule="evenodd">
        <g>
            <path d="M5.1424633,8.040533 L5.1424633,8.464733 L6.14814848,8.464733 L6.14814848,8.040533 C6.14814848,7.910733 6.23635219,7.796733 6.3638707,7.762333 C6.58305589,7.702533 6.79348181,7.616133 6.98903737,7.506733 C7.10372256,7.440733 7.2489633,7.460533 7.34327811,7.552933 L7.65005589,7.854133 L8.36138922,7.156133 L8.05420404,6.854333 C7.96050033,6.761733 7.94135219,6.619133 8.00735219,6.506133 C8.11877811,6.315933 8.206167,6.109533 8.26727811,5.892333 C8.30251885,5.767733 8.41862996,5.680733 8.55083367,5.680733 L8.9818707,5.680733 L8.9818707,4.693333 L8.55083367,4.693333 C8.41862996,4.693333 8.30251885,4.606533 8.26727811,4.481733 C8.206167,4.264533 8.11877811,4.057933 8.00735219,3.867933 C7.94135219,3.754533 7.96050033,3.612333 8.05440774,3.519733 L8.36098181,3.218533 L7.64985219,2.520533 L7.342667,2.821333 C7.24875959,2.913333 7.10392626,2.931933 6.98985219,2.868133 C6.7924633,2.758733 6.58183367,2.672933 6.3634633,2.613133 C6.23635219,2.579133 6.14814848,2.465133 6.14814848,2.335333 L6.14814848,1.911133 L5.1424633,1.911133 L5.1424633,2.335333 C5.1424633,2.465133 5.05425959,2.579133 4.92674107,2.613533 C4.71061144,2.672733 4.49957441,2.758533 4.29974107,2.869133 C4.18485219,2.932333 4.04124107,2.914333 3.94753737,2.821733 L3.64035219,2.520933 L2.92922256,3.218933 L3.23579663,3.520133 C3.32950033,3.612133 3.34905589,3.754333 3.2834633,3.867133 C3.17224107,4.058933 3.08485219,4.265933 3.02394478,4.482133 C2.98870404,4.606733 2.87259293,4.693733 2.74038922,4.693733 L2.30711144,4.693733 L2.30711144,5.681133 L2.74038922,5.681133 C2.87259293,5.681133 2.98870404,5.767933 3.02394478,5.892733 C3.08485219,6.108733 3.17224107,6.315933 3.2834633,6.507733 C3.34905589,6.620533 3.32950033,6.762733 3.23600033,6.854733 L2.92881515,7.156533 L3.64014848,7.854533 L3.94692626,7.553333 C4.04062996,7.460733 4.18505589,7.442133 4.30055589,7.506533 C4.49855589,7.617133 4.70918552,7.703533 4.92633367,7.762733 C5.05425959,7.796733 5.1424633,7.910733 5.1424633,8.040533 Z M3.93225959,5.187933 C3.93225959,4.260933 4.70062996,3.506733 5.64459293,3.506733 C6.58957441,3.506733 7.35814848,4.261133 7.35814848,5.187933 C7.35814848,6.114733 6.58957441,6.869133 5.64459293,6.869133 C4.70062996,6.869133 3.93225959,6.114933 3.93225959,5.187933 Z" id="Shape"></path>
            <path d="M11.7670003,11.750533 C10.7334077,11.750533 9.89251885,12.576533 9.89251885,13.592133 C9.89251885,14.607133 10.7334077,15.432533 11.7670003,15.432533 C12.8005929,15.432533 13.6414818,14.607133 13.6414818,13.592133 C13.6414818,12.576533 12.8005929,11.750533 11.7670003,11.750533 Z" id="Shape"></path>
            <path d="M15.925204,12.470533 C15.8319077,12.133733 15.6933892,11.807133 15.5137226,11.499533 C15.4477226,11.386133 15.4668707,11.243933 15.5605744,11.151333 L16.1392966,10.582533 L14.8319263,9.298333 L14.2517781,9.867133 C14.1572596,9.960133 14.0124263,9.978933 13.8969263,9.913333 C13.5895374,9.739533 13.2564818,9.603533 12.90713,9.509333 C12.7796114,9.474333 12.6910003,9.360333 12.6910003,9.230533 L12.6910003,8.429333 L10.8430003,8.429333 L10.8430003,9.230533 C10.8430003,9.360333 10.7545929,9.474333 10.6272781,9.509333 C10.2793522,9.603533 9.94548181,9.739533 9.63524107,9.913933 C9.51953737,9.977133 9.37490774,9.959533 9.28100033,9.867133 L8.70288922,9.298333 L7.39409293,10.582533 L7.97342626,11.151333 C8.06733367,11.243333 8.08668552,11.386133 8.02048181,11.499533 C7.84285219,11.803733 7.70433367,12.130933 7.60879663,12.471733 C7.57375959,12.596933 7.45764848,12.683933 7.32524107,12.683933 L6.50920404,12.683933 L6.50920404,14.499533 L7.32524107,14.499533 C7.45744478,14.499533 7.57355589,14.586333 7.60879663,14.711133 C7.70535219,15.054133 7.84407441,15.381933 8.02088922,15.685533 C8.08668552,15.798333 8.06753737,15.941133 7.97342626,16.033133 L7.39409293,16.601933 L8.70288922,17.886133 L9.28100033,17.317333 C9.37531515,17.224733 9.51831515,17.205533 9.63462996,17.270533 C9.95261144,17.447733 10.2862781,17.584133 10.6264633,17.675133 C10.7543892,17.709533 10.843204,17.823533 10.843204,17.953933 L10.843204,18.756133 L12.691204,18.756133 L12.691204,17.953333 C12.691204,17.822933 12.7800189,17.709133 12.9081485,17.674533 C13.2497596,17.583133 13.5828151,17.447133 13.8979448,17.270533 C14.0122226,17.204533 14.1568522,17.223733 14.2519818,17.316733 L14.83213,17.885533 L16.1395003,16.601333 L15.5607781,16.032533 C15.4670744,15.939933 15.4479263,15.797733 15.5137226,15.684933 C15.6923707,15.377533 15.8312966,15.050133 15.9254077,14.711733 C15.9604448,14.585933 16.0767596,14.498933 16.2093707,14.498933 L17.0264263,14.498933 L17.0264263,12.683333 L16.2093707,12.683333 C16.0763522,12.683733 15.9598337,12.596333 15.925204,12.470533 Z M11.7670003,16.010333 C10.4089077,16.010333 9.30401885,14.925333 9.30401885,13.592133 C9.30401885,12.258333 10.408704,11.172933 11.7670003,11.172933 C13.1252966,11.172933 14.2299818,12.258533 14.2299818,13.592133 C14.2299818,14.925333 13.1252966,16.010333 11.7670003,16.010333 Z" id="Shape"></path>
            <path d="M17.3203707,12.105933 L16.4281485,12.105933 C16.3491114,11.866733 16.2501114,11.633133 16.1319633,11.407533 L16.7632411,10.786933 C16.8779263,10.674133 16.8779263,10.491333 16.7630374,10.378533 L15.0403151,8.685933 C14.9254263,8.573133 14.7392411,8.573133 14.6243522,8.685933 L13.9914448,9.306533 C13.7639077,9.191933 13.5259818,9.094333 13.279704,9.015933 L13.279704,8.140933 C13.279704,7.981333 13.1481114,7.852133 12.9855559,7.852133 L10.5488522,7.852133 C10.3862966,7.852133 10.254704,7.981333 10.254704,8.140933 L10.254704,9.015933 C10.0092411,9.094933 9.77111144,9.191933 9.54235219,9.306533 L8.91148181,8.685933 C8.85627811,8.631733 8.78131515,8.601333 8.70350033,8.601333 C8.70329663,8.601333 8.70329663,8.601333 8.70329663,8.601333 C8.62548181,8.601333 8.55051885,8.631733 8.49531515,8.685933 L6.77014848,10.378533 C6.71494478,10.432733 6.68398181,10.506133 6.68398181,10.582733 C6.68398181,10.659533 6.71494478,10.732733 6.77014848,10.786933 L7.40224107,11.407533 C7.28531515,11.631533 7.18611144,11.865133 7.106667,12.105933 L6.21505589,12.105933 C6.05250033,12.105933 5.92090774,12.235133 5.92090774,12.394733 L5.92090774,14.788133 C5.92090774,14.947733 6.05250033,15.076933 6.21505589,15.076933 L7.106667,15.076933 C7.18692626,15.318333 7.28592626,15.552533 7.40224107,15.776533 L6.77014848,16.397133 C6.71494478,16.451333 6.68398181,16.524733 6.68398181,16.601333 C6.68398181,16.677933 6.71494478,16.751333 6.77014848,16.805533 L8.49531515,18.498133 C8.55051885,18.552333 8.62548181,18.582733 8.70329663,18.582733 C8.70329663,18.582733 8.70329663,18.582733 8.70350033,18.582733 C8.78131515,18.582733 8.85627811,18.552333 8.91148181,18.498133 L9.54275959,17.877533 C9.7743707,17.993133 10.0125003,18.090733 10.254704,18.168133 L10.254704,19.044333 C10.254704,19.203933 10.3862966,19.333133 10.5488522,19.333133 L12.9853522,19.333133 C13.1479077,19.333133 13.2795003,19.203933 13.2795003,19.044333 L13.2795003,18.168133 C13.5225189,18.090933 13.7604448,17.993733 13.9912411,17.877533 L14.6241485,18.498133 C14.7390374,18.610933 14.9252226,18.610933 15.0401114,18.498133 L16.7628337,16.805533 C16.8777226,16.692733 16.8777226,16.509933 16.7630374,16.397133 L16.1317596,15.776533 C16.2492966,15.550933 16.3482966,15.316733 16.4277411,15.076933 L17.3203707,15.076933 C17.4829263,15.076933 17.6145189,14.947733 17.6145189,14.788133 L17.6145189,12.394933 C17.6145189,12.235133 17.4829263,12.105933 17.3203707,12.105933 Z M17.0262226,14.499333 L16.209167,14.499333 C16.0767596,14.499333 15.9604448,14.586133 15.925204,14.712133 C15.8308892,15.050733 15.692167,15.377933 15.5135189,15.685333 C15.4477226,15.798133 15.4668707,15.940333 15.5605744,16.032933 L16.1392966,16.601733 L14.8319263,17.885933 L14.2517781,17.317133 C14.1566485,17.224133 14.0122226,17.204933 13.8977411,17.270933 C13.5826114,17.447533 13.2495559,17.583533 12.9079448,17.674933 C12.7798151,17.709333 12.6910003,17.823333 12.6910003,17.953733 L12.6910003,18.755933 L10.8430003,18.755933 L10.8430003,17.953333 C10.8430003,17.822933 10.7541855,17.709133 10.6262596,17.674533 C10.2860744,17.583733 9.95240774,17.447133 9.63442626,17.269933 C9.51811144,17.205133 9.37490774,17.224133 9.28079663,17.316733 L8.70268552,17.885533 L7.39388922,16.601333 L7.97322256,16.032533 C8.06712996,15.940533 8.08648181,15.797733 8.02068552,15.684933 C7.84407441,15.381333 7.70514848,15.053533 7.60859293,14.710533 C7.57335219,14.585933 7.45724107,14.498933 7.32503737,14.498933 L6.50900033,14.498933 L6.50900033,12.683333 L7.32503737,12.683333 C7.45744478,12.683333 7.57355589,12.596533 7.60859293,12.471133 C7.70433367,12.130333 7.84285219,11.803133 8.02027811,11.498933 C8.08627811,11.385533 8.06712996,11.242733 7.97322256,11.150733 L7.39388922,10.581933 L8.70268552,9.297733 L9.28079663,9.866533 C9.37470404,9.959133 9.51933367,9.976533 9.63503737,9.913333 C9.94527811,9.738933 10.2791485,9.602933 10.6270744,9.508733 C10.7543892,9.473733 10.8427966,9.359733 10.8427966,9.229933 L10.8427966,8.428733 L12.6907966,8.428733 L12.6907966,9.229933 C12.6907966,9.359733 12.779204,9.473733 12.9069263,9.508733 C13.2562781,9.602933 13.5893337,9.738933 13.8967226,9.912733 C14.0122226,9.978133 14.1570559,9.959533 14.2515744,9.866533 L14.8317226,9.297733 L16.1390929,10.581933 L15.5603707,11.150733 C15.466667,11.243333 15.4475189,11.385533 15.5135189,11.498933 C15.6931855,11.806333 15.8315003,12.133133 15.9250003,12.469933 C15.9598337,12.595733 16.0761485,12.683133 16.2089633,12.683133 L17.0260189,12.683133 L17.0260189,14.499333 L17.0262226,14.499333 Z" id="Shape" stroke="#CD930C" stroke-width="0.3" fill="#CD930C" fill-rule="nonzero"></path>
            <path d="M11.7670003,11.172933 C10.4089077,11.172933 9.30401885,12.258533 9.30401885,13.592133 C9.30401885,14.925333 10.408704,16.010333 11.7670003,16.010333 C13.1252966,16.010333 14.2299818,14.925333 14.2299818,13.592133 C14.2299818,12.258333 13.1252966,11.172933 11.7670003,11.172933 Z" id="Shape" fill="#CD930C" fill-rule="nonzero"></path>
            <path d="M4.84831515,9.042533 C4.68555589,9.042533 4.5539633,8.913333 4.5539633,8.753333 L4.5539633,8.251733 C4.43703737,8.211733 4.32214848,8.164933 4.21011144,8.111333 L3.84833367,8.466733 C3.73344478,8.579533 3.54725959,8.579533 3.4323707,8.466733 L2.3048707,7.360933 C2.18998181,7.248133 2.18998181,7.065333 2.304667,6.952533 L2.66705589,6.595933 C2.61327811,6.486533 2.56581515,6.373533 2.5244633,6.258533 L2.0129633,6.258533 C1.85040774,6.258533 1.71881515,6.129333 1.71881515,5.969733 L1.71881515,4.404733 C1.71881515,4.245133 1.85040774,4.115933 2.0129633,4.115933 L2.52425959,4.115933 C2.56581515,4.000733 2.61307441,3.887933 2.66685219,3.778533 L2.3048707,3.423133 C2.249667,3.368933 2.21870404,3.295533 2.21870404,3.218933 C2.21870404,3.142333 2.249667,3.068933 2.3048707,3.014733 L3.4323707,1.908933 C3.54725959,1.796133 3.73324107,1.796133 3.84812996,1.908933 L4.21051885,2.263733 C4.3229633,2.210533 4.43744478,2.163733 4.554167,2.123733 L4.554167,1.622133 C4.554167,1.462533 4.68575959,1.333333 4.84831515,1.333333 L6.44229663,1.333333 C6.60485219,1.333333 6.73644478,1.462533 6.73624107,1.622133 L6.73624107,2.123733 C6.853167,2.164533 6.96805589,2.211333 7.07988922,2.263733 L7.44227811,1.909333 C7.557167,1.796533 7.74314848,1.796533 7.85803737,1.909333 L8.98553737,3.015133 C9.04074107,3.069333 9.07170404,3.142733 9.07170404,3.219333 C9.07170404,3.295933 9.04074107,3.369333 8.98553737,3.423533 L8.624167,3.778333 C8.67774107,3.887933 8.72581515,4.000733 8.767167,4.116333 L9.27622256,4.116333 C9.43877811,4.116333 9.5703707,4.245533 9.5703707,4.405133 L9.5703707,5.970133 C9.5703707,6.129733 9.43877811,6.258933 9.27622256,6.258933 L8.767167,6.258933 C8.72581515,6.374733 8.67774107,6.487533 8.62375959,6.596933 L8.98574107,6.952933 C9.10042626,7.065733 9.10042626,7.248533 8.98553737,7.361333 L7.85803737,8.467133 C7.74314848,8.579933 7.5569633,8.579933 7.44207441,8.467133 L7.08029663,8.112333 C6.9688707,8.165333 6.85398181,8.212133 6.73644478,8.252733 L6.73644478,8.753733 C6.73644478,8.913333 6.60485219,9.042533 6.44229663,9.042533 L4.84831515,9.042533 Z M7.34850562,5.24258046 C7.34850562,4.31558046 6.57993154,3.56138046 5.63495006,3.56138046 C4.69078339,3.56138046 3.92261673,4.31578046 3.92261673,5.24258046 C3.92261673,6.16938046 4.6909871,6.92378046 5.63495006,6.92378046 C6.57972784,6.92378046 7.34850562,6.16958046 7.34850562,5.24258046 Z" id="Combined-Shape" fill="#121212" fill-rule="nonzero"></path>
        </g>
    </g>
</svg>