<?xml version="1.0" encoding="UTF-8"?>
<svg width="20px" height="20px" viewBox="0 0 20 20" version="1.1" xmlns="http://www.w3.org/2000/svg" xmlns:xlink="http://www.w3.org/1999/xlink">
    <!-- Generator: Sketch 51.3 (57544) - http://www.bohemiancoding.com/sketch -->
    <title>icon_isosurf</title>
    <desc>Created with Sketch.</desc>
    <defs></defs>
    <g id="icon_isosurf" stroke="none" stroke-width="1" fill="none" fill-rule="evenodd">
        <g transform="translate(1.000000, 1.000000)" id="Group-81" stroke="#121212">
            <g transform="translate(0.646073, 0.417981)">
                <path d="M16.0057083,5.53509005 C16.0057083,8.52541179 16.5072943,10.3046389 17.5104664,10.8727714 L10.5463332,17.8961276 C10.2879865,17.8509204 10.1003417,17.8071506 9.9833989,17.7648181 C8.31001409,17.1590648 7.38286975,15.5200229 7.20196587,12.8476927 C7.17488113,11.2820468 6.74965995,10.0065219 5.92630232,9.02111801 C5.1029447,8.03571414 3.89988554,7.3913817 2.31712485,7.0881207 L11.3833691,0.791701533 C14.4649285,0.963638794 16.0057083,2.5447683 16.0057083,5.53509005 Z" id="Path-95" fill="#CD930C"></path>
                <path d="M1.39474434,7.72485734 C0.932711143,9.15964233 0.770865957,10.6074246 0.909208781,12.0682042 C1.10618423,14.1480932 1.59201874,15.9803679 2.36671229,17.5650285 C3.21475229,15.875973 4.01720666,14.5951874 4.77407539,13.7226718 C5.53094411,12.8501562 6.29593909,12.1892642 7.06906033,11.7399957 C6.82019913,10.257886 6.19338915,9.10591644 5.1886304,8.28408719 C4.75719104,7.93119702 3.90689233,7.53755678 2.63773425,7.10316646 L2.36671229,7.10316646 L1.39474434,7.72485734 Z" id="Path-97" fill="#E4AD2E"></path>
            </g>
        </g>
        <rect id="Rectangle-67" fill="#121212" fill-rule="nonzero" x="2" y="1" width="4" height="1"></rect>
        <rect id="Rectangle-67" fill="#121212" fill-rule="nonzero" x="2" y="5" width="4" height="1"></rect>
        <rect id="Rectangle-67" fill="#121212" fill-rule="nonzero" transform="translate(1.500000, 3.500000) rotate(-270.000000) translate(-1.500000, -3.500000) " x="0" y="3" width="3" height="1"></rect>
    </g>
</svg>