<?xml version="1.0" encoding="UTF-8"?>
<svg width="20px" height="20px" viewBox="0 0 20 20" version="1.1" xmlns="http://www.w3.org/2000/svg" xmlns:xlink="http://www.w3.org/1999/xlink">
    <!-- Generator: Sketch 51.2 (57519) - http://www.bohemiancoding.com/sketch -->
    <title>icon_newconnection</title>
    <desc>Created with Sketch.</desc>
    <defs></defs>
    <g id="Remote_Client_Mitali" stroke="none" stroke-width="1" fill="none" fill-rule="evenodd">
        <g id="New-Connection">
            <path d="M5,6.5 C4.72385763,6.5 4.5,6.72385763 4.5,7 L4.5,11.7508648 C4.5,12.0270072 4.72385763,12.2508648 5,12.2508648 L13,12.2508648 C13.2761424,12.2508648 13.5,12.0270072 13.5,11.7508648 L13.5,7 C13.5,6.72385763 13.2761424,6.5 13,6.5 L5,6.5 Z" id="Rectangle-34" stroke="#121212"></path>
            <path d="M14.8073914,12.3023023 L17.1189249,12.3023023 C17.1189249,9.43349965 17.1189249,7.4501059 17.1189249,6.35212108 C17.1189249,5.25413626 17.1189249,5.46501059 17.1189249,6.98474408" id="Path-141" stroke="#CD930C" stroke-dasharray="1"></path>
            <path d="M18.9539923,2.38089682 C18.9226538,2.34889148 18.8826471,2.33355559 18.8339723,2.33355559 L17.6671112,2.33355559 L17.6671112,1.16669445 C17.6671112,1.11801967 17.6511085,1.078013 17.61977,1.04667445 C17.5884314,1.01533589 17.5470912,1 17.4977496,1 L16.5029172,1 C16.4535756,1 16.4129022,1.01533589 16.3808968,1.04667445 C16.3488915,1.078013 16.3335556,1.11801967 16.3335556,1.16669445 L16.3335556,2.33355559 L15.1666944,2.33355559 C15.1180197,2.33355559 15.078013,2.34955826 15.0466744,2.38089682 C15.0153359,2.41223537 15,2.45290882 15,2.50291715 L15,3.49774962 C15,3.54709118 15.0153359,3.58776463 15.0466744,3.61976996 C15.078013,3.6517753 15.1180197,3.66711119 15.1666944,3.66711119 L16.3335556,3.66711119 L16.3335556,4.83397233 C16.3335556,4.88264711 16.3495583,4.92265378 16.3808968,4.95399233 C16.4122354,4.98533089 16.4529088,5.00066678 16.5022504,5.00066678 L17.4970828,5.00066678 C17.5464244,5.00066678 17.5870978,4.98533089 17.6191032,4.95399233 C17.6511085,4.92265378 17.6664444,4.88264711 17.6664444,4.83397233 L17.6664444,3.66711119 L18.8333056,3.66711119 C18.8819803,3.66711119 18.921987,3.65110852 18.9533256,3.61976996 C18.9846641,3.58843141 19,3.54775796 19,3.4984164 L19,2.50358393 C19,2.45424237 18.9846641,2.41356893 18.9533256,2.38156359 L18.9539923,2.38089682 Z" id="Shape" fill="#CD930C" fill-rule="nonzero"></path>
            <path d="M4.20275335,14.4705465 L2,18 L15.8274447,18 L13.8536288,14.5079352 C13.6762234,14.1940705 13.3436028,14 12.9830703,14 L5.05109232,14 C4.70607358,14 4.38542473,14.1778537 4.20275335,14.4705465 Z" id="Path-140" stroke="#121212"></path>
        </g>
    </g>
</svg>
