<?xml version="1.0" encoding="UTF-8"?>
<svg width="20px" height="20px" viewBox="0 0 20 20" version="1.1" xmlns="http://www.w3.org/2000/svg" xmlns:xlink="http://www.w3.org/1999/xlink">
    <!-- Generator: Sketch 51.3 (57544) - http://www.bohemiancoding.com/sketch -->
    <title>icon_contours_aim</title>
    <desc>Created with Sketch.</desc>
    <defs>
        <linearGradient x1="51.8638492%" y1="-30.792119%" x2="51.8638432%" y2="95.002581%" id="linearGradient-1">
            <stop stop-color="#FFFFFF" offset="0%"></stop>
            <stop stop-color="#62A76F" offset="32.2025921%"></stop>
            <stop stop-color="#C4DA38" offset="56.4921679%"></stop>
            <stop stop-color="#F3EB33" offset="72.097479%"></stop>
            <stop stop-color="#F27C35" offset="84.966266%"></stop>
            <stop stop-color="#EF4136" offset="100%"></stop>
        </linearGradient>
        <radialGradient cx="50%" cy="50%" fx="50%" fy="50%" r="45.9743839%" gradientTransform="translate(0.500000,0.500000),scale(0.822268,1.000000),translate(-0.500000,-0.500000)" id="radialGradient-2">
            <stop stop-color="#1F78B8" offset="0%"></stop>
            <stop stop-color="#75B164" offset="100%"></stop>
        </radialGradient>
        <linearGradient x1="51.8638492%" y1="-3.18336994%" x2="51.8638492%" y2="100%" id="linearGradient-3">
            <stop stop-color="#EF4136" offset="0%"></stop>
            <stop stop-color="#F38235" offset="17.2358826%"></stop>
            <stop stop-color="#F7EC32" offset="40.59002%"></stop>
            <stop stop-color="#ADD23B" offset="60.4587161%"></stop>
            <stop stop-color="#76AA53" offset="80.3210747%"></stop>
            <stop stop-color="#284994" offset="100%"></stop>
        </linearGradient>
    </defs>
    <g id="icon_contours_aim" stroke="none" stroke-width="1" fill="none" fill-rule="evenodd">
        <g transform="translate(0.000000, 1.000000)">
            <path d="M12.1979604,2.86942675 C12.332056,2.82644435 12.4620787,2.78036227 12.5868945,2.73147185 C12.5976847,2.72724534 12.6312683,2.71723282 12.7203043,2.69210451 L12.7375958,2.68721661 C12.8924261,2.64335631 12.9495422,2.62492501 13.0261061,2.58273674 C13.096898,2.54752849 13.096898,2.54752849 13.2401241,2.37002717 C13.30399,1.90989137 13.30399,1.90989137 13.0515064,1.69254076 C12.9439686,1.62855344 12.868969,1.61650654 12.7385208,1.60995759 L12.2239807,1.58412588 L12.1979604,2.86942675 Z M12.9654387,13.5016749 C12.1347987,16.3323592 7.03270466,16.4020494 6.06879672,14.0129856 L6.03268372,13.8115877 L6.38979526,1.34562965 L7.10043778,1.72170163 C7.20031716,1.77455779 7.30712829,1.82342995 7.42165585,1.86817928 C8.04613267,2.11272903 8.90422636,2.24886814 9.8010783,2.24886814 C10.6156917,2.24886814 11.5249115,2.07347281 12.2221754,1.80035426 C12.2785912,1.77825617 12.3132515,1.76792267 12.4486878,1.72969893 C12.4569417,1.72736864 12.4569417,1.72736864 12.465041,1.72507634 C12.5184135,1.709957 12.5655638,1.69474161 12.5435016,1.70689835 C12.4939724,1.72919687 12.4939724,1.72919687 12.3601531,1.89499972 C12.2991473,2.34410996 12.2991473,2.34410996 12.54016,2.55191544 C12.6264462,2.60325761 12.6475727,2.60665108 12.6883805,2.60869977 L12.7134507,2.10932868 L13.2133482,2.11944887 L12.9855658,13.3710106 L12.9654387,13.5016749 Z" id="Shape" stroke="#646365" fill="url(#linearGradient-1)" fill-rule="nonzero" transform="translate(9.666778, 8.662719) rotate(-130.000000) translate(-9.666778, -8.662719) "></path>
            <polygon id="Rectangle-2" fill="#414042" points="17.9911008 16 19.0049432 16 19.0049432 16.9990547 17.9911008 16.9990547"></polygon>
            <polygon id="Rectangle-2" fill="#414042" points="17.9911008 12 19.0049432 12 19.0049432 12.9990547 17.9911008 12.9990547"></polygon>
            <polygon id="Rectangle-2" fill="#414042" points="17.9911008 8 19.0049432 8 19.0049432 8.99905473 17.9911008 8.99905473"></polygon>
            <polygon id="Rectangle-2" fill="#414042" points="17.9911008 4 19.0049432 4 19.0049432 4.99905473 17.9911008 4.99905473"></polygon>
            <polygon id="Rectangle-2" fill="#414042" points="17.9975586 1.15685239e-13 19.0049432 1.99840144e-15 19.0049432 0.999054727 17.9975586 0.999054727"></polygon>
            <path d="M7.49924306,13.1687376 C7.49924306,13.8712503 7.15446084,14.590453 6.56592645,15.1554368 C5.13672776,16.5274452 2.74260937,16.5274452 1.31341067,15.1554368 C0.724876287,14.590453 0.380094071,13.8712503 0.380094071,13.1687376 C0.380094071,12.4662248 0.724876287,11.7470221 1.31341067,11.1820383 C2.00930948,10.5139864 2.95613196,10.1528642 3.93966856,10.1528642 C4.92320517,10.1528642 5.87002765,10.5139864 6.56592645,11.1820383 C7.15446084,11.7470221 7.49924306,12.4662248 7.49924306,13.1687376 Z" id="Path" stroke="#646365" fill="url(#radialGradient-2)" transform="translate(3.939669, 13.168654) rotate(-130.000000) translate(-3.939669, -13.168654) "></path>
            <polygon id="Rectangle" fill="url(#linearGradient-3)" points="16.9973907 0.00372314453 17.998342 0.00372314453 17.998342 16.9939117 16.9973907 16.9939117"></polygon>
        </g>
    </g>
</svg>